# xmcd
#
# Track frame offsets: 
#        150
#        15395
#        29362
#        41002
#        53120
#        68090
#        80622
#        93880
#        110072
#        121392
#        134917
#        152492
#        164777
#        179647
#        196135
#        211467
#        225962
#        241240
#        258972
#        273867
#
# Disc length: 3887 seconds
#
# Revision: 2
# Processed by: cddbd v1.5PL3 Copyright (c) Steve Scherf et al.
# Submitted via: ExactAudioCopy v0.90b4
#
DISCID=140f2d14
DTITLE=John Conlee - 20 Greatest Hits
DYEAR=1900
DGENRE=Country
TTITLE0=Rose Colored Glasses
TTITLE1=Lady Lay Down
TTITLE2=Backside Of Thirty
TTITLE3=Before My Time
TTITLE4=Friday Night Blues
TTITLE5=She Can't Say That Anymore
TTITLE6=What I Had With You
TTITLE7=Miss Emily's Picture
TTITLE8=Busted
TTITLE9=Nothing Behind You, Nothing In Sight
TTITLE10=I Don't Remember Loving You
TTITLE11=Common Man
TTITLE12=I'm Only In It For The Love
TTITLE13=In My Eyes
TTITLE14=As Long As I'm Rockin' With You
TTITLE15=Way Back
TTITLE16=Years After You
TTITLE17=Working Man
TTITLE18=Blue Highway
TTITLE19=Old School
EXTD=
EXTT0=
EXTT1=
EXTT2=
EXTT3=
EXTT4=
EXTT5=
EXTT6=
EXTT7=
EXTT8=
EXTT9=
EXTT10=
EXTT11=
EXTT12=
EXTT13=
EXTT14=
EXTT15=
EXTT16=
EXTT17=
EXTT18=
EXTT19=
PLAYORDER=
